<?xml version="1.0" encoding="utf-8"?>
<!-- Generator: Adobe Illustrator 22.0.0, SVG Export Plug-In . SVG Version: 6.00 Build 0)  -->
<svg xmlns="http://www.w3.org/2000/svg" xmlns:xlink="http://www.w3.org/1999/xlink" version="1.1" id="Layer_2" x="0px" y="0px" viewBox="0 0 256 256" style="enable-background:new 0 0 256 256;" xml:space="preserve" width="512" height="512">
<style type="text/css">
	.st0{fill:#3A312A;}
	.st1{fill:#D7E057;}
	.st2{fill:#FCE8CB;}
	.st3{fill:#F16C7A;}
	.st4{fill:#87796F;}
	.st5{fill:#8AC6DD;}
	.st6{fill:#D34E5C;}
	.st7{fill:#6CA8BF;}
	.st8{fill-rule:evenodd;clip-rule:evenodd;fill:#FCE8CB;}
	.st9{fill:#695B51;}
	.st10{fill:#B9C239;}
	.st11{fill:#DECAAD;}
	.st12{fill:#FCE8CB;stroke:#3A312A;stroke-width:3;stroke-linecap:round;stroke-linejoin:round;stroke-miterlimit:10;}
	.st13{fill:#F5978A;}
</style>
<g>
	<g>
		<g>
			<path class="st1" d="M49.676,42.603c-0.974,11.564-13.024,13.389-13.024,13.389c10.347,0.487,12.925,14.059,12.925,14.059     c0.221-9.677,13.321-14.202,13.321-14.202C53.084,55.262,49.676,42.603,49.676,42.603z"/>
		</g>
	</g>
	<g>
		<g>
			<path class="st0" d="M62.987,54.352c-8.605-0.515-11.832-12.024-11.864-12.141c-0.19-0.702-0.848-1.158-1.583-1.102     c-0.725,0.066-1.298,0.642-1.359,1.367c-0.86,10.215-11.314,11.964-11.754,12.033c-0.763,0.115-1.313,0.79-1.273,1.56     c0.04,0.77,0.657,1.384,1.428,1.421c9.028,0.425,11.498,12.718,11.522,12.842c0.137,0.711,0.759,1.217,1.472,1.217     c0.042,0,0.084-0.002,0.126-0.005c0.764-0.064,1.357-0.693,1.375-1.459c0.194-8.509,12.191-12.777,12.312-12.819     c0.675-0.235,1.092-0.914,0.994-1.623C64.285,54.935,63.701,54.394,62.987,54.352z M49.421,64.697     c-1.357-3.13-3.709-6.907-7.587-8.876c2.931-1.405,6.409-3.913,8.202-8.273c1.551,3.071,4.199,6.88,8.333,8.722     C55.363,57.911,51.448,60.676,49.421,64.697z"/>
		</g>
	</g>
	<g>
		<g>
			<path class="st1" d="M27.977,59.583c-0.689,8.179-9.212,9.471-9.212,9.471c7.318,0.344,9.142,9.944,9.142,9.944     c0.156-6.844,9.422-10.045,9.422-10.045C30.388,68.537,27.977,59.583,27.977,59.583z"/>
		</g>
	</g>
	<g>
		<g>
			<path class="st0" d="M37.419,67.455c-5.767-0.345-7.973-8.186-7.994-8.265c-0.19-0.702-0.853-1.169-1.582-1.102     c-0.726,0.065-1.299,0.642-1.36,1.368c-0.579,6.871-7.646,8.067-7.942,8.114c-0.763,0.115-1.313,0.79-1.273,1.56     c0.04,0.77,0.657,1.384,1.428,1.421c6.035,0.284,7.723,8.644,7.739,8.726c0.135,0.713,0.759,1.22,1.472,1.22     c0.042,0,0.083-0.001,0.125-0.005c0.765-0.063,1.358-0.694,1.376-1.461c0.13-5.709,8.331-8.634,8.412-8.662     c0.676-0.234,1.094-0.913,0.996-1.622C38.718,68.04,38.133,67.498,37.419,67.455z M27.834,74.25     c-0.924-1.885-2.34-3.947-4.447-5.28c1.856-1.041,3.697-2.63,4.871-4.916c1.057,1.873,2.655,3.954,4.941,5.224     C31.349,70.378,29.21,72.018,27.834,74.25z"/>
		</g>
	</g>
	<g>
		<g>
			<path class="st1" d="M27.977,32.926c-0.689,8.179-9.212,9.471-9.212,9.471c7.318,0.344,9.142,9.944,9.142,9.944     c0.156-6.845,9.422-10.045,9.422-10.045C30.388,41.88,27.977,32.926,27.977,32.926z"/>
		</g>
	</g>
	<g>
		<g>
			<path class="st0" d="M37.419,40.797c-5.744-0.344-7.956-8.124-7.994-8.263c-0.19-0.703-0.854-1.171-1.583-1.103     c-0.726,0.065-1.299,0.642-1.36,1.368c-0.579,6.871-7.646,8.066-7.942,8.113c-0.763,0.115-1.313,0.79-1.273,1.56     c0.04,0.77,0.657,1.384,1.427,1.421c6.036,0.284,7.724,8.644,7.739,8.726c0.135,0.713,0.759,1.22,1.472,1.22     c0.042,0,0.083-0.001,0.125-0.005c0.765-0.063,1.358-0.694,1.376-1.461c0.13-5.709,8.332-8.634,8.412-8.662     c0.677-0.234,1.094-0.913,0.996-1.622C38.718,41.382,38.133,40.84,37.419,40.797z M27.834,47.593     c-0.924-1.886-2.34-3.947-4.447-5.28c1.856-1.042,3.697-2.63,4.871-4.917c1.057,1.873,2.655,3.955,4.941,5.224     C31.349,43.721,29.21,45.361,27.834,47.593z"/>
		</g>
	</g>
	<g>
		<g>
			<path class="st2" d="M202.336,54.613c-2.218-3.021-5.734-4.52-9.215-4.298c1.255-3.255,0.878-7.059-1.34-10.08     c-3.459-4.712-10.087-5.728-14.804-2.27c-4.713,3.464-5.729,10.092-2.27,14.804c0.082,0.112,0.171,0.22,0.258,0.333     l-12.545,9.204c2.82,1.319,5.173,3.117,6.904,5.476c1.732,2.359,2.743,5.143,3.156,8.228l3.873-2.844l6.456-4.742l2.211-1.624     c0.082,0.117,0.158,0.234,0.241,0.346c3.459,4.712,10.087,5.728,14.804,2.27C204.779,65.953,205.795,59.325,202.336,54.613z"/>
		</g>
	</g>
	<g>
		<g>
			<path class="st0" d="M203.545,53.725c-2.035-2.773-5.094-4.508-8.444-4.865c0.664-3.302-0.075-6.741-2.111-9.513     c-3.942-5.372-11.525-6.533-16.901-2.591c-5.079,3.732-6.395,10.713-3.19,16.003l-11.365,8.338     c-0.427,0.313-0.657,0.829-0.606,1.356c0.051,0.527,0.378,0.988,0.857,1.212c2.685,1.256,4.815,2.94,6.331,5.006     c1.516,2.065,2.485,4.602,2.878,7.539c0.07,0.525,0.413,0.974,0.9,1.181c0.189,0.08,0.388,0.12,0.587,0.12     c0.315,0,0.627-0.099,0.888-0.291l10.329-7.586c0,0,0,0,0,0l1.032-0.758c4.086,4.64,11.14,5.476,16.225,1.75     C206.326,66.677,207.488,59.096,203.545,53.725z M199.18,68.207c-4.043,2.966-9.744,2.091-12.708-1.948l-0.219-0.316     c-0.231-0.332-0.587-0.556-0.985-0.622c-0.399-0.066-0.808,0.032-1.133,0.271l-2.211,1.624h0l-8.41,6.177     c-0.603-2.443-1.6-4.621-2.978-6.497c-1.377-1.876-3.156-3.48-5.307-4.788l10.626-7.796c0.327-0.24,0.542-0.601,0.598-1.002     c0.056-0.401-0.052-0.808-0.3-1.127l-0.235-0.302c-2.964-4.038-2.09-9.739,1.948-12.707c4.042-2.964,9.743-2.09,12.708,1.948     c1.841,2.508,2.271,5.743,1.149,8.652c-0.184,0.477-0.112,1.015,0.19,1.427c0.302,0.412,0.798,0.636,1.304,0.609     c3.111-0.199,6.069,1.181,7.911,3.69C204.091,59.538,203.217,65.239,199.18,68.207z"/>
		</g>
	</g>
	<g>
		<g>
			<path class="st4" d="M169.326,67.783c-8.085-11.014-29.845-9.885-48.623-4.328l-14.261,5.34     c-4.079,1.892-7.68,3.933-10.498,6.003c-16.815,12.344-20.44,35.983-8.096,52.798c12.344,16.815,35.983,20.44,52.798,8.096     c5.425-3.982,11.618-10.715,17.106-18.57l4.385-6.784C171.21,95.118,176.58,77.664,169.326,67.783z"/>
		</g>
	</g>
	<g>
		<g>
			<path class="st0" d="M170.535,66.895c-8.783-11.964-31.721-10.364-50.257-4.878c-0.794,0.235-1.247,1.07-1.013,1.864     c0.235,0.794,1.068,1.249,1.864,1.013c16.756-4.96,39.116-6.945,46.988,3.777c5.914,8.055,3.196,23.345-7.239,40.853     l-4.355,6.739c-5.389,7.714-11.5,14.355-16.764,18.22c-16.123,11.835-38.867,8.348-50.702-7.774     c-5.733-7.81-8.081-17.385-6.613-26.961c1.468-9.576,6.578-18.007,14.388-23.741c2.704-1.984,6.15-3.953,10.242-5.85     c0.752-0.349,1.079-1.24,0.73-1.992c-0.349-0.752-1.241-1.079-1.992-0.73c-4.273,1.981-7.892,4.052-10.755,6.154     c-17.455,12.814-21.231,37.439-8.417,54.895c7.686,10.469,19.618,16.018,31.707,16.017c8.066,0,16.203-2.472,23.188-7.6     c5.518-4.051,11.878-10.948,17.478-18.965l4.414-6.83C179.429,84.261,173.728,71.245,170.535,66.895z"/>
		</g>
	</g>
	<g>
		<g>
			<path class="st4" d="M127.86,83.082c-50.11,0-90.74,32.274-90.74,72.075c0,7.303,1.37,14.356,3.92,20.997h173.64     c2.55-6.641,3.92-13.694,3.92-20.997C218.6,115.356,177.97,83.082,127.86,83.082z"/>
		</g>
	</g>
	<g>
		<g>
			<path class="st0" d="M127.86,81.582c-50.861,0-92.24,33.006-92.24,73.575c0,7.342,1.353,14.588,4.02,21.535     c0.223,0.58,0.779,0.962,1.4,0.962h173.64c0.621,0,1.178-0.383,1.4-0.962c2.667-6.947,4.02-14.192,4.02-21.535     C220.1,114.588,178.721,81.582,127.86,81.582z M213.639,174.654H42.08c-2.297-6.308-3.461-12.861-3.461-19.497     c0-38.915,40.033-70.575,89.24-70.575c49.207,0,89.24,31.66,89.24,70.575C217.1,161.793,215.936,168.346,213.639,174.654z"/>
		</g>
	</g>
	<g>
		<g>
			<path class="st2" d="M16.42,176.152c0,19.436,15.756,35.192,35.192,35.192h152.497c19.436,0,35.192-15.756,35.192-35.192H16.42z"/>
		</g>
	</g>
	<g>
		<g>
			<path class="st0" d="M239.3,174.652H16.419c-0.829,0-1.5,0.671-1.5,1.5c0,20.232,16.46,36.692,36.692,36.692h4.531     c0.829,0,1.5-0.671,1.5-1.5c0-0.829-0.671-1.5-1.5-1.5h-4.531c-18.076,0-32.872-14.307-33.659-32.192h219.815     c-0.787,17.885-15.583,32.192-33.659,32.192H71.076c-0.829,0-1.5,0.671-1.5,1.5c0,0.829,0.671,1.5,1.5,1.5h133.032     c20.232,0,36.691-16.46,36.691-36.692C240.8,175.324,240.128,174.652,239.3,174.652z"/>
		</g>
	</g>
	<g>
		<g>
			<rect x="80.666" y="211.344" class="st2" width="94.387" height="11.731"/>
		</g>
	</g>
	<g>
		<g>
			<path class="st0" d="M175.053,209.844H80.667c-0.829,0-1.5,0.671-1.5,1.5v11.73c0,0.829,0.671,1.5,1.5,1.5h94.387     c0.829,0,1.5-0.671,1.5-1.5v-11.73C176.553,210.515,175.882,209.844,175.053,209.844z M173.553,221.574H82.167v-8.73h91.387     V221.574z"/>
		</g>
	</g>
	<g>
		<g>
			<path class="st11" d="M223.32,177.654c-0.79,17.88-15.58,32.19-33.66,32.19h14.45c18.07,0,32.87-14.31,33.66-32.19H223.32z"/>
		</g>
	</g>
	<g>
		<g>
			<path class="st2" d="M237.528,81.733c-2.218-3.021-5.734-4.52-9.215-4.299c1.254-3.255,0.878-7.059-1.34-10.08     c-3.459-4.712-10.087-5.728-14.804-2.27c-4.713,3.464-5.729,10.092-2.27,14.804c0.082,0.112,0.171,0.22,0.258,0.333     l-12.545,9.205c2.82,1.319,5.173,3.117,6.904,5.476c1.732,2.359,2.742,5.142,3.156,8.228l3.873-2.844l6.456-4.742l2.211-1.624     c0.082,0.117,0.158,0.234,0.241,0.346c3.459,4.712,10.087,5.728,14.804,2.27C239.971,93.073,240.987,86.445,237.528,81.733z"/>
		</g>
	</g>
	<g>
		<g>
			<path class="st0" d="M238.737,80.845c-2.035-2.772-5.094-4.508-8.444-4.864c0.663-3.303-0.076-6.741-2.111-9.514     c-3.942-5.371-11.524-6.533-16.901-2.591c-5.078,3.733-6.395,10.713-3.191,16.002l-11.364,8.338     c-0.427,0.313-0.657,0.829-0.606,1.356c0.051,0.527,0.378,0.988,0.857,1.212c2.684,1.256,4.814,2.94,6.331,5.006     c1.516,2.065,2.484,4.602,2.878,7.539c0.07,0.525,0.413,0.974,0.9,1.181c0.188,0.08,0.388,0.12,0.587,0.12     c0.314,0,0.626-0.099,0.888-0.291l11.361-8.344c4.085,4.641,11.141,5.477,16.224,1.75     C241.518,93.797,242.68,86.216,238.737,80.845z M234.371,95.327c-4.044,2.964-9.745,2.09-12.708-1.948l-0.218-0.315     c-0.231-0.332-0.586-0.557-0.985-0.623c-0.4-0.067-0.808,0.031-1.134,0.271l-2.211,1.624l-8.411,6.177     c-0.603-2.443-1.6-4.621-2.977-6.498c-1.378-1.876-3.157-3.48-5.307-4.788l10.625-7.796c0.326-0.239,0.542-0.6,0.598-1     c0.057-0.4-0.051-0.806-0.298-1.126l-0.237-0.305c-2.964-4.038-2.09-9.739,1.948-12.707c4.043-2.964,9.744-2.09,12.708,1.948     c1.841,2.508,2.271,5.743,1.15,8.652c-0.184,0.477-0.112,1.015,0.19,1.427c0.302,0.412,0.791,0.638,1.305,0.609     c3.116-0.203,6.069,1.181,7.91,3.689C239.283,86.659,238.409,92.359,234.371,95.327z"/>
		</g>
	</g>
	<g>
		<g>
			<path class="st4" d="M204.518,94.903c-12.344-16.815-56.567-5.329-73.382,7.015c-16.815,12.344-20.44,35.983-8.095,52.799     c12.344,16.815,35.983,20.44,52.798,8.095c5.425-3.982,11.618-10.714,17.106-18.57l4.385-6.784     C206.402,122.238,211.772,104.784,204.518,94.903z"/>
		</g>
	</g>
	<g>
		<g>
			<path class="st0" d="M205.727,94.015c-7.878-10.731-26.223-9.632-36.457-8.021c-14.447,2.273-30.129,8.186-39.023,14.715     c-8.456,6.207-13.988,15.336-15.578,25.704s0.953,20.735,7.161,29.191c6.207,8.456,15.336,13.988,25.704,15.578     c2.017,0.309,4.033,0.462,6.035,0.462c8.293,0,16.345-2.623,23.156-7.623c5.518-4.05,11.877-10.946,17.478-18.965l4.385-6.784     c0.01-0.016,0.02-0.031,0.029-0.046C214.62,111.38,208.92,98.365,205.727,94.015z M196.055,136.667l-4.34,6.716     c-5.391,7.715-11.5,14.356-16.764,18.22c-7.81,5.733-17.383,8.083-26.961,6.613c-9.576-1.468-18.007-6.578-23.741-14.388     c-5.733-7.81-8.082-17.385-6.613-26.961c1.468-9.576,6.578-18.007,14.388-23.741c10.592-7.775,32.413-15.114,49.653-15.114     c9.462,0,17.547,2.212,21.633,7.777C209.22,103.842,206.508,119.121,196.055,136.667z"/>
		</g>
	</g>
	<g>
		<g>
			<path class="st9" d="M168.12,68.674c-4.09-5.57-12.17-7.78-21.64-7.78c-5.96,0-12.47,0.88-18.88,2.35     c4.05-0.63,8.04-0.98,11.81-0.98c9.46,0,17.55,2.22,21.63,7.78c2.98,4.05,3.76,9.95,2.47,17.04c1.93-0.42,3.85-0.79,5.76-1.09     c0.42-0.07,0.86-0.13,1.3-0.19C171.88,78.674,171.11,72.744,168.12,68.674z"/>
		</g>
	</g>
	<g>
		<g>
			<path class="st9" d="M206.5,121.834c-1.04,2.96-2.41,6.19-4.18,9.69v0.01c3.34,7.39,5.15,15.34,5.15,23.62     c0,6.64-1.16,13.19-3.46,19.5h9.63c2.3-6.31,3.46-12.86,3.46-19.5C217.1,143.114,213.26,131.764,206.5,121.834z"/>
		</g>
	</g>
	<g>
		<g>
			<path class="st9" d="M203.31,95.794c-4.09-5.57-12.17-7.78-21.63-7.78c-1.64,0-3.32,0.07-5.04,0.2     c7.45,0.63,13.63,2.94,17.04,7.58c5.91,8.05,3.2,23.33-7.26,40.87l-4.33,6.72c-5.4,7.71-11.51,14.35-16.77,18.22     c-4.96,3.64-10.63,5.92-16.56,6.711c9.32,1.24,18.59-1.13,26.19-6.711c5.26-3.87,11.37-10.51,16.77-18.22l4.33-6.72     C206.51,119.124,209.22,103.844,203.31,95.794z"/>
		</g>
	</g>
</g>
</svg>
