<svg height="512pt" viewBox="0 0 512 512" width="512pt" xmlns="http://www.w3.org/2000/svg"><path d="m256 13.949219c-64.65625 0-125.4375 25.179687-171.15625 70.894531-45.714844 45.71875-70.894531 106.503906-70.894531 171.15625s25.175781 125.4375 70.894531 171.15625c45.71875 45.714844 106.503906 70.894531 171.15625 70.894531s125.4375-25.179687 171.15625-70.894531c45.714844-45.71875 70.894531-106.503906 70.894531-171.15625s-25.175781-125.4375-70.894531-171.15625c-45.71875-45.714844-106.5-70.894531-171.15625-70.894531zm0 0" fill="#fff587"/><path d="m427.15625 84.84375c-45.71875-45.714844-106.5-70.894531-171.15625-70.894531v484.101562c64.65625 0 125.4375-25.179687 171.15625-70.894531 45.714844-45.71875 70.894531-106.503906 70.894531-171.15625s-25.175781-125.4375-70.894531-171.15625zm0 0" fill="#fdbf00"/><path d="m201.84375 152.414062h-30v-84.292968h64.351562v30h-34.351562zm0 0" fill="#00d7df"/><path d="m160.132812 396.261719h-60.730468l-16.8125-258.847657h208.535156l-4.269531 64.070313zm0 0" fill="#8cd95b"/><path d="m256 137.414062v111.269532l30.855469-47.199219 4.269531-64.070313zm0 0" fill="#3ea871"/><path d="m406.226562 348.425781h-240.324218c-17.464844 0-31.621094-14.15625-31.621094-31.621093 0-17.464844 14.15625-31.625 31.621094-31.625h240.324218c17.464844 0 31.621094 14.160156 31.621094 31.625 0 17.460937-14.15625 31.621093-31.621094 31.621093zm0 0" fill="#a0401a"/><path d="m150.132812 344.234375h271.859376v52.027344h-271.859376zm0 0" fill="#fdbf00"/><path d="m150.132812 289.433594v-1.324219c0-54.28125 44.164063-98.445313 98.445313-98.445313h74.972656c54.28125 0 98.441407 44.164063 98.441407 98.445313zm0 0" fill="#fdbf00"/><path d="m406.226562 285.183594h-150.226562v63.242187h150.226562c17.464844 0 31.621094-14.15625 31.621094-31.621093 0-17.464844-14.15625-31.621094-31.621094-31.621094zm0 0" fill="#862712"/><path d="m256 344.234375h165.992188v52.027344h-165.992188zm0 0" fill="#ff9100"/><path d="m256 288.917969 165.992188-.808594c0-54.28125-44.160157-98.445313-98.441407-98.445313h-67.550781zm0 0" fill="#ff9100"/><path d="m437.019531 74.980469c-48.351562-48.351563-112.640625-74.980469-181.019531-74.980469s-132.667969 26.628906-181.019531 74.980469c-48.351563 48.351562-74.980469 112.640625-74.980469 181.019531s26.628906 132.667969 74.980469 181.019531c48.351562 48.351563 112.640625 74.980469 181.019531 74.980469s132.667969-26.628906 181.019531-74.980469c48.351563-48.351562 74.980469-112.640625 74.980469-181.019531s-26.628906-132.667969-74.980469-181.019531zm-407.019531 181.019531c0-60.367188 23.507812-117.121094 66.195312-159.804688 42.683594-42.6875 99.4375-66.195312 159.804688-66.195312s117.121094 23.507812 159.804688 66.195312c.195312.195313.382812.394532.578124.589844l-319.597656 319.597656c-.195312-.195312-.394531-.382812-.589844-.578124-42.6875-42.683594-66.195312-99.4375-66.195312-159.804688zm385.804688 159.804688c-42.683594 42.6875-99.4375 66.195312-159.804688 66.195312-49.964844 0-97.449219-16.121094-136.535156-45.875l316.660156-316.660156c29.753906 39.089844 45.875 86.570312 45.875 136.535156 0 60.367188-23.507812 117.121094-66.195312 159.804688zm0 0" fill="#fa235e"/><path d="m437.019531 74.980469c-48.351562-48.351563-112.640625-74.980469-181.019531-74.980469v30c60.367188 0 117.121094 23.507812 159.804688 66.195312.195312.195313.382812.394532.578124.589844l-160.382812 160.378906v42.425782l180.125-180.125c29.753906 39.089844 45.875 86.570312 45.875 136.535156 0 60.367188-23.507812 117.121094-66.195312 159.804688-42.683594 42.6875-99.4375 66.195312-159.804688 66.195312v30c68.378906 0 132.667969-26.628906 181.019531-74.980469 48.351563-48.351562 74.980469-112.640625 74.980469-181.019531s-26.628906-132.667969-74.980469-181.019531zm0 0" fill="#c91341"/></svg>