<?xml version="1.0" encoding="utf-8"?>
<!-- Generator: Adobe Illustrator 22.0.0, SVG Export Plug-In . SVG Version: 6.00 Build 0)  -->
<svg xmlns="http://www.w3.org/2000/svg" xmlns:xlink="http://www.w3.org/1999/xlink" version="1.1" id="Layer_2" x="0px" y="0px" viewBox="0 0 256 256" style="enable-background:new 0 0 256 256;" xml:space="preserve" width="512" height="512">
<style type="text/css">
	.st0{fill:#87796F;}
	.st1{fill:#3A312A;}
	.st2{fill:#FCE8CB;}
	.st3{fill:#D7E057;}
	.st4{fill:#8AC6DD;}
	.st5{fill:#F16C7A;}
	.st6{fill:#DECAAD;}
	.st7{fill:#B9C239;}
	.st8{fill:#695B51;}
	.st9{fill:#8AC6DD;stroke:#3A312A;stroke-width:3;stroke-linecap:round;stroke-linejoin:round;stroke-miterlimit:10;}
	.st10{fill:#6CA8BF;}
	.st11{fill:#D34E5C;}
	.st12{fill-rule:evenodd;clip-rule:evenodd;fill:#FCE8CB;}
	.st13{fill:#F5978A;}
	.st14{fill-rule:evenodd;clip-rule:evenodd;fill:#F16C7A;}
	.st15{fill-rule:evenodd;clip-rule:evenodd;fill:#D7E057;}
</style>
<g>
	<g>
		<g>
			<path class="st3" d="M47.414,26.243c-0.974,11.564-13.024,13.39-13.024,13.39c10.346,0.487,12.925,14.059,12.925,14.059     c0.221-9.677,13.321-14.202,13.321-14.202C50.823,38.903,47.414,26.243,47.414,26.243z"/>
		</g>
	</g>
	<g>
		<g>
			<path class="st1" d="M60.726,37.993c-8.605-0.516-11.832-12.025-11.864-12.142c-0.19-0.702-0.846-1.155-1.583-1.102     c-0.725,0.066-1.298,0.642-1.359,1.367c-0.86,10.216-11.313,11.964-11.754,12.032c-0.763,0.116-1.313,0.791-1.273,1.561     c0.04,0.771,0.657,1.385,1.427,1.421c9.028,0.426,11.499,12.719,11.523,12.844c0.137,0.711,0.759,1.217,1.472,1.217     c0.042,0,0.084-0.002,0.126-0.005c0.764-0.064,1.357-0.693,1.374-1.46c0.194-8.509,12.191-12.777,12.312-12.819     c0.675-0.234,1.092-0.914,0.994-1.622C62.023,38.577,61.44,38.036,60.726,37.993z M47.16,48.338     c-1.357-3.13-3.709-6.907-7.587-8.876c2.931-1.404,6.409-3.913,8.202-8.273c1.551,3.071,4.199,6.881,8.333,8.723     C53.102,41.552,49.187,44.316,47.16,48.338z"/>
		</g>
	</g>
	<g>
		<g>
			<path class="st3" d="M25.716,43.224c-0.689,8.179-9.212,9.471-9.212,9.471c7.318,0.344,9.142,9.944,9.142,9.944     c0.156-6.845,9.422-10.046,9.422-10.046C28.126,52.178,25.716,43.224,25.716,43.224z"/>
		</g>
	</g>
	<g>
		<g>
			<path class="st1" d="M35.157,51.097c-5.766-0.346-7.972-8.187-7.994-8.266c-0.19-0.702-0.855-1.162-1.582-1.102     c-0.725,0.065-1.299,0.643-1.36,1.368c-0.579,6.871-7.646,8.066-7.942,8.113c-0.763,0.116-1.313,0.791-1.273,1.561     c0.04,0.771,0.657,1.385,1.427,1.421c6.035,0.284,7.724,8.645,7.739,8.727c0.135,0.713,0.759,1.22,1.472,1.22     c0.042,0,0.083-0.002,0.125-0.005c0.765-0.063,1.358-0.693,1.376-1.461c0.13-5.709,8.331-8.633,8.412-8.661     c0.676-0.233,1.094-0.913,0.996-1.622C36.456,51.681,35.872,51.14,35.157,51.097z M25.573,57.891     c-0.924-1.885-2.34-3.947-4.447-5.279c1.856-1.041,3.697-2.63,4.871-4.917c1.057,1.874,2.654,3.955,4.941,5.225     C29.087,54.02,26.949,55.658,25.573,57.891z"/>
		</g>
	</g>
	<g>
		<g>
			<path class="st3" d="M25.716,16.566c-0.689,8.179-9.212,9.471-9.212,9.471c7.318,0.344,9.142,9.944,9.142,9.944     c0.156-6.844,9.422-10.045,9.422-10.045C28.126,25.521,25.716,16.566,25.716,16.566z"/>
		</g>
	</g>
	<g>
		<g>
			<path class="st1" d="M35.157,24.438c-5.766-0.345-7.972-8.186-7.993-8.265c-0.19-0.701-0.855-1.172-1.582-1.102     c-0.725,0.065-1.299,0.643-1.36,1.368c-0.579,6.871-7.646,8.066-7.942,8.113c-0.763,0.116-1.313,0.791-1.273,1.561     c0.04,0.771,0.657,1.385,1.427,1.421c6.035,0.284,7.724,8.645,7.739,8.727c0.135,0.713,0.759,1.22,1.473,1.22     c0.041,0,0.083-0.002,0.125-0.005c0.765-0.063,1.358-0.693,1.376-1.461c0.13-5.709,8.332-8.634,8.412-8.662     c0.677-0.234,1.094-0.913,0.996-1.622C36.456,25.022,35.872,24.48,35.157,24.438z M25.573,31.233     c-0.924-1.885-2.34-3.947-4.447-5.279c1.856-1.041,3.697-2.63,4.871-4.917c1.057,1.874,2.654,3.954,4.941,5.224     C29.087,27.361,26.949,29.001,25.573,31.233z"/>
		</g>
	</g>
	<g>
		<g>
			
				<ellipse transform="matrix(0.3214 -0.9469 0.9469 0.3214 73.5329 170.0311)" class="st3" cx="155.398" cy="33.711" rx="16.805" ry="16.805"/>
		</g>
	</g>
	<g>
		<g>
			<path class="st1" d="M155.398,15.406h-0.058c-10.093,0.033-18.278,8.271-18.246,18.363c0.016,4.89,1.935,9.48,5.403,12.927     c3.454,3.432,8.032,5.319,12.899,5.319h0.061c4.889-0.016,9.48-1.934,12.926-5.402s5.336-8.071,5.32-12.961     C173.671,23.579,165.465,15.406,155.398,15.406z M166.255,44.499c-2.881,2.899-6.72,4.504-10.808,4.517h-0.051     c-4.069,0-7.897-1.578-10.785-4.447c-2.9-2.882-4.504-6.721-4.517-10.809c-0.027-8.438,6.816-15.326,15.255-15.354h0.049     c8.417,0,15.278,6.834,15.305,15.256C170.716,37.75,169.137,41.599,166.255,44.499z"/>
		</g>
	</g>
	<g>
		<g>
			<path class="st3" d="M188.976,16.799c-9.281,0.03-16.781,7.577-16.751,16.858c0.03,9.281,7.578,16.781,16.859,16.751     c9.281-0.03,16.781-7.577,16.751-16.858C205.805,24.269,198.257,16.769,188.976,16.799z"/>
		</g>
	</g>
	<g>
		<g>
			<path class="st1" d="M201.932,20.618c-3.454-3.432-8.033-5.319-12.899-5.319h-0.061c-4.889,0.016-9.479,1.934-12.926,5.402     c-3.446,3.469-5.335,8.071-5.32,12.961c0.032,10.073,8.237,18.247,18.305,18.246h0.059c10.093-0.033,18.278-8.271,18.246-18.363     C207.318,28.655,205.4,24.064,201.932,20.618z M189.079,48.908h-0.049c-8.417,0-15.278-6.834-15.305-15.256     c-0.013-4.088,1.566-7.937,4.448-10.837c2.881-2.899,6.72-4.504,10.808-4.517h0.051c4.069,0,7.898,1.578,10.785,4.447     c2.9,2.882,4.504,6.721,4.517,10.809C204.361,41.993,197.518,48.881,189.079,48.908z"/>
		</g>
	</g>
	<g>
		<g>
			<path class="st3" d="M138.591,36.384c-9.281,0.03-16.78,7.577-16.751,16.858c0.03,9.281,7.578,16.781,16.858,16.751     c9.281-0.03,16.781-7.578,16.751-16.858C155.419,43.853,147.872,36.354,138.591,36.384z"/>
		</g>
	</g>
	<g>
		<g>
			<path class="st1" d="M151.546,40.203c-3.454-3.432-8.033-5.319-12.899-5.319h-0.062c-4.889,0.016-9.479,1.934-12.926,5.402     c-3.446,3.469-5.335,8.071-5.32,12.961c0.032,10.073,8.237,18.247,18.305,18.246h0.059c10.093-0.033,18.278-8.271,18.246-18.363     C156.934,48.24,155.015,43.649,151.546,40.203z M138.693,68.493h-0.049c-8.416,0-15.278-6.834-15.305-15.256     c-0.013-4.088,1.567-7.937,4.448-10.837c2.881-2.899,6.72-4.504,10.808-4.517h0.051c4.069,0,7.897,1.578,10.785,4.447     c2.9,2.882,4.504,6.721,4.518,10.809C153.976,61.578,147.132,68.466,138.693,68.493z"/>
		</g>
	</g>
	<g>
		<g>
			<path class="st3" d="M172.222,36.276c-9.281,0.03-16.781,7.578-16.751,16.859c0.03,9.281,7.578,16.78,16.858,16.751     c9.281-0.03,16.781-7.578,16.751-16.859C189.051,43.746,181.503,36.246,172.222,36.276z"/>
		</g>
	</g>
	<g>
		<g>
			<path class="st1" d="M185.178,40.096c-3.455-3.433-8.034-5.32-12.901-5.32h-0.06c-10.093,0.033-18.278,8.271-18.246,18.363     c0.016,4.89,1.935,9.48,5.403,12.927c3.454,3.432,8.032,5.319,12.899,5.319h0.062c4.889-0.016,9.48-1.934,12.926-5.402     c3.446-3.469,5.335-8.071,5.32-12.961C190.565,48.132,188.646,43.542,185.178,40.096z M183.132,63.868     c-2.881,2.899-6.72,4.504-10.808,4.517h-0.051c-4.069,0-7.897-1.578-10.785-4.447c-2.9-2.882-4.504-6.721-4.518-10.809     c-0.027-8.438,6.816-15.326,15.255-15.354h0.049c8.417,0,15.278,6.834,15.305,15.256     C187.593,57.119,186.014,60.968,183.132,63.868z"/>
		</g>
	</g>
	<g>
		<g>
			<path class="st3" d="M205.853,36.168c-9.281,0.03-16.781,7.578-16.751,16.858c0.03,9.281,7.577,16.781,16.858,16.751     c9.281-0.03,16.781-7.577,16.751-16.858C222.682,43.638,215.134,36.138,205.853,36.168z"/>
		</g>
	</g>
	<g>
		<g>
			<path class="st1" d="M205.907,34.668h-0.059c-4.889,0.016-9.479,1.934-12.926,5.402c-3.446,3.469-5.335,8.071-5.32,12.961     c0.032,10.073,8.237,18.246,18.305,18.246h0.059c10.093-0.033,18.278-8.271,18.246-18.363     C224.18,42.841,215.974,34.668,205.907,34.668z M205.956,68.277h-0.049c-8.417,0-15.278-6.834-15.305-15.256     c-0.013-4.088,1.566-7.937,4.448-10.837c2.881-2.899,6.72-4.504,10.808-4.517h0.049c8.417,0,15.278,6.834,15.305,15.256     C221.239,61.362,214.395,68.25,205.956,68.277z"/>
		</g>
	</g>
	<g>
		<g>
			
				<ellipse transform="matrix(0.9239 -0.3827 0.3827 0.9239 -18.9991 52.2333)" class="st3" cx="121.798" cy="73.874" rx="16.805" ry="16.805"/>
		</g>
	</g>
	<g>
		<g>
			<path class="st1" d="M121.798,55.569c-10.094,0-18.305,8.212-18.305,18.305s8.211,18.305,18.305,18.305     c10.093,0,18.304-8.212,18.304-18.305S131.891,55.569,121.798,55.569z M121.798,89.179c-8.44,0-15.305-6.865-15.305-15.305     s6.866-15.305,15.305-15.305c8.439,0,15.304,6.865,15.304,15.305S130.237,89.179,121.798,89.179z"/>
		</g>
	</g>
	<g>
		<g>
			
				<ellipse transform="matrix(0.9871 -0.1602 0.1602 0.9871 -9.8263 25.8508)" class="st3" cx="155.429" cy="73.874" rx="16.805" ry="16.805"/>
		</g>
	</g>
	<g>
		<g>
			<path class="st1" d="M155.429,55.569c-10.093,0-18.305,8.212-18.305,18.305s8.211,18.305,18.305,18.305     s18.305-8.212,18.305-18.305S165.523,55.569,155.429,55.569z M155.429,89.179c-8.439,0-15.305-6.865-15.305-15.305     s6.866-15.305,15.305-15.305c8.439,0,15.305,6.865,15.305,15.305S163.868,89.179,155.429,89.179z"/>
		</g>
	</g>
	<g>
		<g>
			<path class="st3" d="M189.061,57.069c-9.281,0-16.805,7.524-16.805,16.805s7.524,16.805,16.805,16.805     s16.805-7.524,16.805-16.805S198.342,57.069,189.061,57.069z"/>
		</g>
	</g>
	<g>
		<g>
			<path class="st1" d="M189.06,55.569c-10.093,0-18.305,8.212-18.305,18.305s8.211,18.305,18.305,18.305     c10.093,0,18.305-8.212,18.305-18.305S199.154,55.569,189.06,55.569z M189.06,89.179c-8.439,0-15.305-6.865-15.305-15.305     s6.866-15.305,15.305-15.305c8.439,0,15.305,6.865,15.305,15.305S197.5,89.179,189.06,89.179z"/>
		</g>
	</g>
	<g>
		<g>
			
				<ellipse transform="matrix(0.9871 -0.1602 0.1602 0.9871 -8.9578 36.6251)" class="st3" cx="222.692" cy="73.874" rx="16.805" ry="16.805"/>
		</g>
	</g>
	<g>
		<g>
			<path class="st1" d="M222.692,55.569c-10.093,0-18.305,8.212-18.305,18.305s8.211,18.305,18.305,18.305     s18.305-8.212,18.305-18.305S232.785,55.569,222.692,55.569z M222.692,89.179c-8.439,0-15.305-6.865-15.305-15.305     s6.866-15.305,15.305-15.305c8.439,0,15.305,6.865,15.305,15.305S231.131,89.179,222.692,89.179z"/>
		</g>
	</g>
	<g>
		<g>
			<path class="st5" d="M104.993,79.168l15.862,148.085c0.76,7.097,6.75,12.479,13.887,12.479h75.005     c7.138,0,13.127-5.382,13.888-12.479l15.862-148.085H104.993z"/>
		</g>
	</g>
	<g>
		<g>
			<path class="st1" d="M240.612,78.166c-0.285-0.316-0.69-0.497-1.116-0.497H104.993c-0.426,0-0.831,0.181-1.116,0.497     c-0.285,0.317-0.421,0.739-0.376,1.163l15.862,148.085c0.844,7.878,7.456,13.818,15.379,13.818h75.005     c7.924,0,14.535-5.94,15.379-13.818l15.862-148.085C241.033,78.905,240.897,78.483,240.612,78.166z M222.143,227.094     c-0.68,6.351-6.009,11.139-12.395,11.139h-75.005c-6.387,0-11.716-4.788-12.396-11.139L106.662,80.669h131.165L222.143,227.094z"/>
		</g>
	</g>
	<g>
		<g>
			<polygon class="st2" points="132.402,79.168 141.754,239.733 202.735,239.733 212.088,79.168    "/>
		</g>
	</g>
	<g>
		<g>
			<path class="st1" d="M213.179,78.14c-0.283-0.301-0.678-0.471-1.091-0.471h-79.686c-0.413,0-0.808,0.17-1.091,0.471     c-0.283,0.301-0.43,0.704-0.406,1.116l9.352,160.563c0.046,0.794,0.703,1.413,1.498,1.413h60.982     c0.794,0,1.451-0.619,1.497-1.413l9.352-160.563C213.609,78.844,213.462,78.44,213.179,78.14z M201.32,238.232h-58.151     l-9.177-157.563h76.506L201.32,238.232z"/>
		</g>
	</g>
	<g>
		<g>
			<polygon class="st5" points="157.495,79.168 160.957,239.733 183.532,239.733 185.54,146.61 185.856,131.99 186.995,79.168         "/>
		</g>
	</g>
	<g>
		<g>
			<path class="st1" d="M185.824,133.49c0.815-0.005,1.514-0.64,1.532-1.468l1.139-52.822c0.009-0.403-0.146-0.793-0.427-1.081     c-0.282-0.289-0.669-0.451-1.072-0.451h-29.5c-0.403,0-0.79,0.162-1.072,0.451c-0.282,0.288-0.436,0.678-0.427,1.081     l3.462,160.564c0.018,0.815,0.684,1.468,1.499,1.468h22.576c0.816,0,1.482-0.652,1.499-1.468l2.008-93.122     c0.018-0.828-0.639-1.514-1.467-1.532c-0.845-0.011-1.514,0.639-1.532,1.468l-1.976,91.654h-19.64l-3.398-157.564h26.435     l-1.106,51.29C184.338,132.786,184.996,133.472,185.824,133.49z"/>
		</g>
	</g>
	<g>
		<g>
			<rect x="81.475" y="16.267" class="st0" width="16.981" height="62.045"/>
		</g>
	</g>
	<g>
		<g>
			<path class="st1" d="M98.456,14.768H81.475c-0.829,0-1.5,0.672-1.5,1.5v62.044c0,0.828,0.671,1.5,1.5,1.5h16.981     c0.829,0,1.5-0.672,1.5-1.5V16.268C99.956,15.439,99.284,14.768,98.456,14.768z M96.956,76.812H82.975V17.768h13.981V76.812z"/>
		</g>
	</g>
	<g>
		<g>
			<path class="st4" d="M32.314,96.388l4.341,35.999l5.95,49.298l2.482,20.575l1.759,14.585l1.698,14.073     c0.606,5.036,4.882,8.815,9.939,8.815h62.962c5.057,0,9.333-3.78,9.939-8.815l5.939-49.232l5.95-49.298l4.342-35.999H32.314z"/>
		</g>
	</g>
	<g>
		<g>
			<path class="st1" d="M148.739,95.393c-0.285-0.321-0.693-0.505-1.123-0.505H32.314c-0.429,0-0.838,0.184-1.123,0.505     c-0.285,0.321-0.418,0.749-0.367,1.175L43.599,202.44c0.1,0.823,0.846,1.408,1.669,1.31c0.822-0.1,1.409-0.847,1.31-1.669     L34.006,97.888h111.918l-16.028,132.851c-0.514,4.272-4.146,7.494-8.45,7.494H58.484c-4.303,0-7.936-3.222-8.45-7.494     l-1.698-14.073c-0.099-0.822-0.843-1.397-1.669-1.31c-0.822,0.1-1.409,0.847-1.31,1.669l1.698,14.073     c0.695,5.777,5.608,10.135,11.428,10.135h62.962c5.82,0,10.733-4.357,11.428-10.135l16.231-134.53     C149.157,96.142,149.023,95.714,148.739,95.393z"/>
		</g>
	</g>
	<g>
		<g>
			<path class="st2" d="M154.275,78.313H25.656c-4.992,0-9.039,4.047-9.039,9.039c0,4.992,4.047,9.039,9.039,9.039h128.619     c4.992,0,9.039-4.047,9.039-9.039C163.314,82.36,159.267,78.313,154.275,78.313z"/>
		</g>
	</g>
	<g>
		<g>
			<path class="st1" d="M154.275,76.813H72.016c-0.829,0-1.5,0.672-1.5,1.5s0.671,1.5,1.5,1.5h82.259     c4.157,0,7.539,3.382,7.539,7.538c0,4.157-3.382,7.54-7.539,7.54H25.656c-4.157,0-7.539-3.383-7.539-7.54     c0-4.156,3.382-7.538,7.539-7.538H58.1c0.829,0,1.5-0.672,1.5-1.5s-0.671-1.5-1.5-1.5H25.656     c-5.811,0-10.539,4.728-10.539,10.538c0,5.812,4.728,10.54,10.539,10.54h128.619c5.811,0,10.539-4.729,10.539-10.54     C164.814,81.541,160.086,76.813,154.275,76.813z"/>
		</g>
	</g>
	<g>
		<g>
			<path class="st3" d="M115.676,132.387c-6.484-6.762-15.602-10.978-25.711-10.978c-10.108,0-19.226,4.217-25.71,10.978H36.656     l5.95,49.299h21.648c6.485,6.762,15.602,10.979,25.711,10.979c10.108,0,19.227-4.217,25.711-10.979h21.648l5.95-49.299H115.676z"/>
		</g>
	</g>
	<g>
		<g>
			<path class="st1" d="M144.398,131.392c-0.285-0.321-0.693-0.505-1.123-0.505h-26.967c-7.026-7.085-16.354-10.979-26.343-10.979     c-9.988,0-19.317,3.894-26.343,10.979H36.656c-0.429,0-0.838,0.184-1.123,0.505c-0.285,0.321-0.418,0.749-0.367,1.175     l5.95,49.299c0.091,0.754,0.73,1.32,1.489,1.32h21.016c7.026,7.085,16.355,10.979,26.343,10.979     c9.988,0,19.317-3.894,26.343-10.979h21.016c0.759,0,1.398-0.566,1.489-1.32l5.95-49.299     C144.815,132.141,144.682,131.713,144.398,131.392z M135.995,180.186h-20.318c-0.409,0-0.8,0.167-1.082,0.462     c-6.504,6.781-15.25,10.517-24.629,10.517c-9.378,0-18.124-3.735-24.628-10.517c-0.283-0.295-0.674-0.462-1.083-0.462H43.936     l-5.588-46.299h25.907c0.409,0,0.8-0.167,1.083-0.462c6.504-6.781,15.25-10.517,24.628-10.517     c9.378,0,18.124,3.735,24.628,10.517c0.283,0.295,0.674,0.462,1.082,0.462h25.907L135.995,180.186z"/>
		</g>
	</g>
	<g>
		<g>
			<path class="st2" d="M89.965,133.498c-13,0-23.538,10.538-23.538,23.538c0,13,10.538,23.539,23.538,23.539     c13,0,23.539-10.539,23.539-23.539C113.504,144.036,102.965,133.498,89.965,133.498z"/>
		</g>
	</g>
	<g>
		<g>
			<path class="st1" d="M89.965,131.998c-13.806,0-25.038,11.232-25.038,25.038c0,13.807,11.232,25.039,25.038,25.039     c13.806,0,25.039-11.232,25.039-25.039C115.004,143.23,103.771,131.998,89.965,131.998z M89.965,179.075     c-12.152,0-22.038-9.887-22.038-22.039c0-12.151,9.886-22.038,22.038-22.038c12.152,0,22.039,9.887,22.039,22.038     C112.004,169.188,102.118,179.075,89.965,179.075z"/>
		</g>
	</g>
	<g>
		<g>
			<path class="st11" d="M222.827,80.673l-15.68,146.42c-0.25,2.38-1.16,4.54-2.54,6.32l-0.28,4.82h5.42     c6.39,0,11.72-4.79,12.4-11.14l15.68-146.42H222.827z"/>
		</g>
	</g>
	<g>
		<g>
			<polygon class="st10" points="130.927,97.893 126.947,130.883 141.947,130.883 145.927,97.893    "/>
		</g>
	</g>
	<g>
		<g>
			<path class="st10" d="M120.637,183.183l-5.74,47.56c-0.51,4.27-4.15,7.49-8.45,7.49h15c4.3,0,7.94-3.22,8.45-7.49l5.74-47.56     H120.637z"/>
		</g>
	</g>
	<g>
		<g>
			<path class="st6" d="M154.277,79.813h-15c4.16,0,7.54,3.38,7.54,7.54c0,4.16-3.38,7.54-7.54,7.54h15c4.16,0,7.54-3.38,7.54-7.54     C161.817,83.193,158.437,79.813,154.277,79.813z"/>
		</g>
	</g>
	<g>
		<g>
			<polygon class="st7" points="126.587,133.883 120.997,180.183 135.997,180.183 141.587,133.883    "/>
		</g>
	</g>
</g>
</svg>
